<svg xmlns="http://www.w3.org/2000/svg" viewBox="0 0 1024 1024"><defs><radialGradient id="g" cx="55%" cy="42%" r="70%"><stop offset="0" stop-color="#3d7f10"/><stop offset="0.55" stop-color="#132018"/><stop offset="1" stop-color="#090d11"/></radialGradient></defs><rect width="1024" height="1024" fill="url(#g)"/><rect x="36" y="36" width="952" height="952" rx="190" fill="none" stroke="#94ec21" stroke-width="14" opacity="0.55"/><g transform="translate(512 520) scale(0.47)"><polygon points="0,-540 430,-310 0,-80 -430,-310" fill="#88d61c" stroke="#fbfff8" stroke-width="52" stroke-linejoin="round"/><polygon points="-430,-310 0,-80 0,440 -430,210" fill="#121a1c" stroke="#fbfff8" stroke-width="52" stroke-linejoin="round"/><polygon points="430,-310 0,-80 0,440 430,210" fill="#4a7214" stroke="#fbfff8" stroke-width="52" stroke-linejoin="round"/><polygon points="120,-10 290,-100 290,85 120,175" fill="#9ae91c"/><polygon points="145,240 318,150 318,305 145,395" fill="#74c016"/><polygon points="-290,285 -132,370 -132,450 -290,365" fill="#78d21c"/></g></svg>